<svg xmlns="http://www.w3.org/2000/svg" xmlns:xlink="http://www.w3.org/1999/xlink" version="1.1" id="Layer_1" x="0px" y="0px" viewBox="0 0 434 70" style="enable-background:new 0 0 434 70;" xml:space="preserve">
<style type="text/css">
	.st0{fill:#FF6900;}
	.st1{fill:#FFFFFF;}
</style>
<g>
	<g>
		<path class="st0" d="M31.4,3C50,3,64.3,15.8,64.3,34.8C64.3,53.9,50,67,31.4,67H10.5c-4.2,0-7.7-2.8-7.7-7.7V11c0-4.9,3.5-8,7.7-8    H31.4z"/>
		<path d="M52.8,27.9c-0.1,0.8-1,0.8-1.4,0.1c-1.3-2.2-3-2.6-5.7-2.8c-2-0.1-4.4,0.1-6.6,0.1c-0.4,0-0.5-0.3-0.5-0.4    c0.4-1.9,2-5.4,3.7-5.7c0.8-0.1,2.6-0.3,3.6-0.3C50.5,18.9,53,24.2,52.8,27.9 M26.8,46c2.9,0.8,7,1.3,10.4,1    c5.9-0.4,10.4-2.6,12.9-4.2c-1.5,3.8-7.2,6.2-12.6,6.8c0,0.3-0.1,0.5-0.1,0.8c4.1-0.2,8-1.6,9.8-2.8c-1,3.7-6,5.2-10.6,5.5    c-0.1,0.3-0.3,0.6-0.4,0.8c2.7,0,5.2-0.4,6.7-0.9c-2.1,3.9-11.1,6.6-18.7,3C25.9,52.6,26.7,49.2,26.8,46 M51.9,19.4    c-1.8-1.7-4.2-2.5-6.3-2.4c-3,0-5.5,0.8-9.2,0.9c-2.5,0.1-4.8-5.4-7.8-6.1c-1.3-2.9-4.3-3.3-6.1-1.8c-1.7-1-4.3-0.5-4.4,1.4    c-1.9-0.6-4.4,0.4-3.3,3c-4.7,0.1-5.5,4.3-2.4,4.7c-4.1,2.3-2.2,6.3,1.2,5.5c0.6,6,3.3,13.8-1.1,15.7C12,40.5,10,41,6.2,40.1    c-1.1-0.3-2.3-0.6-3.4-0.9v3.1c3.3,0.8,6.6,1.4,8.7,1.2c5.8-0.6,6.1-5.4,5.8-9.6c-0.3-4.1-1.7-8.9-1.2-12.3l-0.2-0.2    c-2.1,2.2-3.5,1.6-3.7,0.9c-0.3-1.4,2.2-3.2,3.6-3.8c0-0.1,0.1-0.2,0.1-0.3c-1.3,0.2-2.9,0-3-0.9c-0.1-1.1,2.2-2.2,5.2-1.9    c0.1,0,0.1-0.1,0.2-0.1c-0.2-0.1-0.4-0.2-0.6-0.3c-0.8-0.4-1-1.1-0.7-1.5c0.3-0.5,1.1-0.7,1.8-0.7c1.1,0,2,0.3,2.7,0.6    c0.1,0,0.1-0.1,0.2-0.1c-0.2-0.2-0.5-0.4-0.6-0.6c-0.2-0.3-0.2-0.8,0.1-1c0.4-0.3,1.5-0.4,2.4,0.4c0.2,0.2,0.4,0.4,0.5,0.5    c0.1,0,0.2,0,0.3-0.1c-0.2-0.2-0.3-0.5-0.3-0.7c-0.1-0.3,0-0.7,0.4-0.8s0.9,0.1,1.2,0.5s0.5,1,0.6,1.3c-2.1,0.2-4.6,1-6.1,3.1l0,0    l0,0c-1.5,2-2.1,5.2-1.2,8.2c0.6,3.1,1.8,6,2.9,9l0,0c0,0,0,0,0,0.1l0,0c2.4,6.9,7,23.9-15.3,32.9C7.7,66.6,9,67,10.3,67h2.3    c4.6-2.4,7.7-5.3,9.9-8.2C32.7,63.3,42,61,46,53.6c2.7-1.6,4.4-4.9,4.5-7.2c1.7-2.1,2-4.7,1.5-6.5c-0.1-0.4-0.5-0.4-1.1-0.1    c-8.3,5-15.6,5.8-24.3,3.2c-0.2-3.4-0.9-6.3-1.2-8.1c-0.2-3.5,0.9-5.2,7.3-3.1c4.2,1.1,6.1,3,7.6,4c0.7,0.5,1.6,1.1,2.1,0.7    c0.3-0.2,0.4-0.8,0.4-1.5c-0.1-1.9-1-5.1-1.8-6.3c2.5-0.1,4.6-0.1,5.7,0c2.4,0.4,2.6,1.7,2.9,2.2c0.7,2,4.6,1.5,4.9-0.2    C55.1,27.2,55.3,22.6,51.9,19.4 M7.5,49.4c-1.6-0.1-3.2-0.1-4.7,0v2.1c2.7-0.6,4.4-0.9,4.4-0.9L7.5,49.4z"/>
		<path class="st1" d="M32.5,27.5c-3.5-0.8-7.4-1.8-9.4-4.8c0-0.1-0.1-0.1-0.2-0.1s-0.1,0.1-0.1,0.1c0,0.2,0,0.3,0.1,0.5l-0.3,0.1    c-0.5-0.8-0.7-1.7-0.1-2.4c0.8-1,2.3-0.9,3.3-0.3l-0.1,0.3c-0.5-0.1-1-0.1-1.4,0.1c-0.3,0.2-0.4,0.5-0.2,0.8    c1.7,3.2,6.7,3.9,12.6,3.4c0.6,0,0.7-0.3,0.8-0.6c0.5-2,1.4-3.9,2.8-5.3c-1.1,0.2-2.1,0.2-2.9,0.2c-3,0.2-4.8-0.2-5.3-0.6l0.1-0.3    c0.3,0.1,0.7,0.1,0.7,0c0.1-0.1,0-0.2-0.1-0.3c-0.6-0.5-3.2-3.2-3.2-3.2c-0.3-2.3-3.6-2.3-4.9-0.1l-0.4-0.1    c0.1-0.5,0.3-0.9,0.5-1.2c-2.7,0.6-4.3,3.1-4.6,5.4C19,29.3,34.5,26.9,38.9,31c0.1,0.1,0.3,0.4,0.4,0.2    C39.5,31,37.5,28.6,32.5,27.5 M27.1,15.3c0.7-0.2,1.8,0.5,2.3,1.6c0.6,1.1,0.4,2.2-0.3,2.5s-1.8-0.5-2.3-1.6    c-0.1-0.2-0.1-0.3-0.2-0.5h0.1c0.2,0.2,0.5,0.3,0.7,0.2c0.3-0.2,0.2-0.6,0-1c-0.2-0.3-0.5-0.6-0.8-0.6l-0.1-0.1    C26.7,15.5,26.9,15.4,27.1,15.3"/>
		<path class="st1" d="M50.1,42.8c-2.5,1.6-7,3.8-12.9,4.2c-3.4,0.2-7.4-0.2-10.4-1c0,1-0.1,2-0.3,3c1.7,0.4,4.6,1,8.9,1.1    c-0.2,1.1-1.4,5.1-4.3,7.6c5.4,0.2,10.3-1.9,11.8-4.7c-1.5,0.5-4.1,1-6.7,0.9c0.1-0.3,0.3-0.5,0.4-0.8c4.6-0.2,9.6-1.7,10.6-5.5    c-1.8,1.2-5.7,2.6-9.8,2.8c0-0.3,0.1-0.5,0.1-0.8C42.9,48.9,48.6,46.6,50.1,42.8"/>
	</g>
	<path d="M414.8,38c-1.6,0-3.3-0.2-4.6-0.6l4.5-10l4.5,10C417.9,37.8,416.4,38,414.8,38 M430.7,45.6l-10.5-22.9   c-1.2-2.5-2.8-3.6-5.2-3.6h-0.4c-2.5,0-4.1,1.1-5.3,3.6l-10.5,22.9c-1,2.3-0.3,4.3,1.8,5.1c1.9,0.7,3.7,0.3,4.8-1.9l2.4-5   c2.1,0.7,4.8,1.1,7.2,1.1c2.6,0,5-0.4,6.9-1.1l2.3,5c1,2.2,3,2.6,4.8,1.9C430.9,49.9,431.7,47.8,430.7,45.6 M392.9,43.5h-2v-21   c0-2.4-1.8-3.8-3.9-3.8s-3.8,1.4-3.8,3.8v21h-13.4v-21c0-2.4-1.7-3.8-3.9-3.8s-3.9,1.4-3.9,3.8v24.7c0,2.1,1.4,3.8,3.8,3.8h23.3   v3.4c0,2.4,1.7,3.8,3.8,3.8c2.2,0,3.8-1.4,3.8-3.8v-7.1C396.7,44.8,395.2,43.5,392.9,43.5 M354.1,43.5h-2v-21   c0-2.4-1.8-3.8-3.9-3.8s-3.8,1.4-3.8,3.8v21H331v-21c0-2.4-1.7-3.8-3.9-3.8s-3.9,1.4-3.9,3.8v24.7c0,2.1,1.4,3.8,3.8,3.8h23.3v3.4   c0,2.4,1.7,3.8,3.8,3.8c2.2,0,3.8-1.4,3.8-3.8v-7.1C357.9,44.8,356.4,43.5,354.1,43.5 M311,19h-0.3c-2.3,0-3.8,1.1-5.4,3.4   l-12.6,17.9V22.8c0-2.4-1.6-3.8-3.7-3.8c-2.2,0-3.8,1.4-3.8,3.8v23.8c0,2.6,1.7,4.3,4.3,4.3h0.4c2.4,0,4-1.2,5.5-3.4L308,29.6v17.5   c0,2.4,1.6,3.8,3.7,3.8s3.7-1.4,3.7-3.8V23.3C315.4,20.7,313.8,19,311,19 M273.4,19h-21.6c-2.5,0-3.8,1.7-3.8,3.8v24.7   c0,2.4,1.8,3.8,3.9,3.8c2.1,0,3.8-1.4,3.8-3.8v-21h13.8v21c0,2.4,1.7,3.8,3.9,3.8c2.1,0,3.9-1.4,3.9-3.9V22.7   C277.3,20.7,275.9,19,273.4,19 M217.5,44c-5.1,0-8.7-3.8-8.7-9c0-5.1,3.7-8.9,8.7-8.9c5.1,0,8.7,3.8,8.7,8.9   C226.2,40.2,222.7,44,217.5,44 M217.5,18.8c-9.3,0-16.4,7-16.4,16.3c0,9.4,7.1,16.3,16.4,16.3c9.2,0,16.4-7.1,16.4-16.4   C233.8,25.6,226.7,18.8,217.5,18.8 M186,43.5h-12.6c0.8-1.7,1.4-3.2,1.9-5.4c0.5-2.4,0.7-4.8,0.8-7.9l0.1-3.7h9.8V43.5z    M195.7,43.5h-2V22.8c0-2.1-1.4-3.8-3.8-3.8h-17.7c-2.1,0-3.5,1.4-3.5,3.8v5c0,3.6-0.1,6.4-0.7,9.4c-0.6,2.9-1.4,4.8-2.5,6.3h-0.9   c-2.5,0-3.7,1.6-3.7,3.8v7.1c0,2.4,1.7,3.8,3.8,3.8c2.2,0,3.8-1.4,3.8-3.8V51h23.3v3.4c0,2.4,1.7,3.8,3.8,3.8   c2.2,0,3.8-1.4,3.8-3.8v-7.1C199.5,45.1,198.3,43.5,195.7,43.5 M143.8,44c-5.1,0-8.7-3.8-8.7-9c0-5.1,3.7-8.9,8.7-8.9   c5.1,0,8.7,3.8,8.7,8.9C152.5,40.2,149.1,44,143.8,44 M143.8,18.8c-9.3,0-16.4,7-16.4,16.3c0,9.4,7.1,16.3,16.4,16.3   c9.2,0,16.4-7.1,16.4-16.4C160.2,25.6,153.1,18.8,143.8,18.8 M112.1,43.5H99.5c0.8-1.7,1.4-3.2,1.9-5.4c0.5-2.4,0.7-4.8,0.8-7.9   l0.1-3.7h9.8C112.1,26.5,112.1,43.5,112.1,43.5z M121.8,43.5h-2V22.8c0-2.1-1.4-3.8-3.8-3.8H98.3c-2.1,0-3.5,1.4-3.5,3.8v5   c0,3.6,0,6.4-0.7,9.4c-0.6,2.9-1.4,4.8-2.5,6.3h-0.8c-2.5,0-3.7,1.6-3.7,3.8v7.1c0,2.4,1.7,3.8,3.8,3.8c2.2,0,3.8-1.4,3.8-3.8V51   H118v3.4c0,2.4,1.7,3.8,3.8,3.8c2.2,0,3.8-1.4,3.8-3.8v-7.1C125.6,45.1,124.4,43.5,121.8,43.5"/>
</g>
</svg>